<svg xmlns="http://www.w3.org/2000/svg" width="228.75" height="15" viewBox="0 0 228.75 15">
    <path d="M0 6.25v-2.5h1.25V2.5H7.5v1.25h-5v2.5h3.75V7.5H7.5V10H6.25v1.25H0V10h5V7.5H1.25V6.25zm12.5 7.5V12.5h1.25v-1.25h-2.5V10H10V2.5h2.5V10H15V2.5h2.5V10h-1.25v2.5H15v1.25h-1.25V15h-5v-1.25zm7.5-7.5v-2.5h1.25V2.5h6.25v1.25h-5v2.5h3.75V7.5h1.25V10h-1.25v1.25H20V10h5V7.5h-3.75V6.25zM33.75 0v2.5h3.75v1.25h-3.75V10h3.75v1.25h-5V10h-1.25V3.75H30V2.5h1.25V0zm7.5 3.75V2.5h5v1.25h1.25V7.5h-5V10h3.75v1.25h-5V10H40V3.75zm3.75 0h-2.5v2.5H45zm5 7.5V2.5h7.5v1.25h1.25v7.5h-2.5v-7.5H55V10h-1.25V3.75H52.5v7.5zM62.5 5V2.5h3.75V5zm0 6.25v-2.5h3.75v2.5zm29.25-5h3v1h-3v6h-2v-13h2zm-4 6h-2v-1h-1v-1h-2v1h-1v1h-2v-1h1v-1h1v-1h1v-7h-3v-1h8v1h-3v7h1v1h1v1h1zm19-5h-8v-1h-1v-1h-1v-2h1v-1h1v-1h8v1h1v1h1v2h-1v1h-1zm-7-4h-1v2h1v1h6v-1h1v-2h-1v-1h-6zm-1 6h-3v-1h14v1h-3v4h-2v-4h-4v4h-2zm14-2v-6h12v1h-10v5h10v1h-5v3h6v1h-14v-1h6v-3h-4v-1zm27-1h3v1h-3v6h-2v-13h2zm-9 4h1v-8h-4v-1h6v9h-1v1h-1v1h-3v-1h2zm25-6v2h2v1h-2v2h-2v-2h-2v-1h2v-2zm8 5v-2h-4v-5h6v1h-4v3h3v1h1v2h-1v1h-1v1h-4v-1h3v-1zm13-5v-3h2v-1h8v1h2v3h-2v1h-3v1h6v1h-14v-1h6v-1h-3v-1zm2-2v1h1v1h6v-1h1v-1h-1v-1h-6v1zm-1 10h-1v-2h10v-1h-10v-1h12v3h-10v1h10v1h-11zm14-9h6v-2h-6v-1h8v4h-6v2h6v1h-7v-1h-1zm12 0h3v1h-3v3h-2v-7h2zm-1 8h1v1h1v1h-2v-1h-2v1h-4v-1h-2v1h-2v-1h1v-1h1v-3h2v3h1v1h2v-1h1v-3h2zm17-5h3v1h-3v6h-2v-13h2zm-6 6h-5v-1h-1v-10h7v1h-5v9h3v-1h2v1h-1zm14-10v1h1v3h-1v2h-2v-2h-1v-3h1v-1zm-2 9v-2h2v2z"/>
</svg>
